<svg width="330" height="243" viewBox="0 0 330 243" fill="none" xmlns="http://www.w3.org/2000/svg">
<g clip-path="url(#clip0_1_141)">
<path d="M160.731 27.904C168.44 27.904 174.689 21.6576 174.689 13.9523C174.689 6.24705 168.44 0.000686646 160.731 0.000686646C153.022 0.000686646 146.773 6.24705 146.773 13.9523C146.773 21.6576 153.022 27.904 160.731 27.904Z" fill="#FFCF01"/>
<path d="M146.946 102.426L131.174 102.643L124.85 32.1661C124.696 30.4555 125.249 28.7259 126.367 27.421L141.876 9.30993C144.048 6.77487 147.739 6.31748 150.464 8.24697L169.889 22.0038C171.474 23.1261 172.456 24.8808 172.583 26.8179L176.076 79.9184L184.862 90.3131L184.88 90.3351L187.128 101.872L146.946 102.426Z" fill="#E6E6E6"/>
<path d="M143.643 25.6971L143.389 22.4259C143.322 21.5625 143.97 20.8055 144.834 20.7385L149.432 20.3818C150.296 20.3148 151.053 20.9628 151.12 21.8262L151.374 25.0973C151.441 25.9608 150.793 26.7177 149.929 26.7848L145.331 27.1414C144.467 27.2084 143.71 26.5605 143.643 25.6971Z" fill="#8A252C"/>
<path d="M135.895 51.8419L134.955 39.7392C134.888 38.8757 135.536 38.1187 136.4 38.0517L143.207 37.5237C144.071 37.4567 144.828 38.1047 144.895 38.9681L145.835 51.0708C145.902 51.9343 145.254 52.6913 144.39 52.7583L137.583 53.2863C136.719 53.3533 135.962 52.7054 135.895 51.8419Z" fill="#3F3D56"/>
<path d="M153.481 78.9782C152.656 79.013 151.941 78.3971 151.853 77.5764L150.6 65.9053C150.547 65.4071 150.727 64.9263 151.095 64.5856C151.462 64.2452 151.956 64.1028 152.449 64.1934L152.8 64.2585C153.499 64.388 154.026 64.973 154.081 65.6813L154.982 77.2875C155.015 77.7161 154.876 78.1295 154.591 78.4512C154.318 78.7587 153.946 78.9431 153.538 78.9747C153.519 78.9761 153.5 78.9774 153.481 78.9782Z" fill="#3F3D56"/>
<path d="M139.074 78.4721L138.131 66.3342C138.065 65.4773 138.683 64.7376 139.538 64.65L145.713 64.0194C146.57 63.941 147.344 64.5577 147.435 65.415L148.746 77.676C148.791 78.1017 148.666 78.5176 148.392 78.8468C148.118 79.1761 147.732 79.3756 147.305 79.4088L140.762 79.9163C139.898 79.9833 139.141 79.3354 139.074 78.4721Z" fill="#3F3D56"/>
<path d="M176.286 83.9294L181.804 92.17L183.113 101.817L186.994 101.763L184.777 90.3846L175.968 79.9619C175.377 81.2499 175.498 82.752 176.286 83.9294Z" fill="#CCCCCC"/>
<path d="M182.743 99.0558L167.021 100.492L167.041 100.712L182.763 99.2764L182.743 99.0558Z" fill="#3F3D56"/>
<path d="M181.637 97.1813L166.724 98.4554L166.742 98.676L181.656 97.4019L181.637 97.1813Z" fill="#3F3D56"/>
<path d="M180.708 95.2501L166.455 96.636L166.477 96.8565L180.729 95.4705L180.708 95.2501Z" fill="#3F3D56"/>
<path d="M180.111 93.3042L166.439 94.8225L166.463 95.0427L180.136 93.5245L180.111 93.3042Z" fill="#3F3D56"/>
<path d="M179.311 91.5924L166.177 93.0768L166.202 93.297L179.336 91.8126L179.311 91.5924Z" fill="#3F3D56"/>
<path d="M178.311 90.1088L165.483 91.1039L165.5 91.3246L178.328 90.3296L178.311 90.1088Z" fill="#3F3D56"/>
<path d="M177.527 88.611L165.072 89.724L165.091 89.9446L177.546 88.8316L177.527 88.611Z" fill="#3F3D56"/>
<path d="M176.742 87.1183L164.693 88.4563L164.717 88.6765L176.766 87.3385L176.742 87.1183Z" fill="#3F3D56"/>
<path d="M176.182 85.615L164.27 86.7499L164.291 86.9704L176.203 85.8355L176.182 85.615Z" fill="#3F3D56"/>
<path d="M175.178 84.1545L163.784 85.3972L163.808 85.6175L175.202 84.3747L175.178 84.1545Z" fill="#3F3D56"/>
<path d="M174.634 82.8418L163.322 83.8305L163.341 84.0511L174.654 83.0625L174.634 82.8418Z" fill="#3F3D56"/>
<path d="M162.133 79.2377L160.971 64.2646C160.904 63.4011 161.552 62.6441 162.416 62.5771L169.665 62.0148C170.528 61.9478 171.286 62.5958 171.353 63.4593L172.515 78.4323C172.582 79.2956 171.934 80.0526 171.07 80.1196L163.822 80.6819C162.958 80.749 162.2 80.101 162.133 79.2377Z" fill="#8A252C"/>
<path d="M146.946 102.426L134.051 102.604L133.947 102.606L133.177 92.6795C133.079 91.4242 134.021 90.3235 135.277 90.2261L147.952 89.2429C149.208 89.1455 150.309 90.0876 150.406 91.343L151.241 102.093L151.131 102.101L146.946 102.426Z" fill="#CCCCCC"/>
<path d="M160.908 52.0119L160.02 40.5714C159.953 39.708 160.601 38.9509 161.465 38.8839L163.854 38.6986C164.718 38.6316 165.475 39.2796 165.542 40.143L166.431 51.5835C166.498 52.4468 165.85 53.2038 164.986 53.2708L162.597 53.4561C161.733 53.5231 160.975 52.8752 160.908 52.0119Z" fill="#3F3D56"/>
<path d="M167.231 101.963L165.814 92.2998L163.106 83.1808L162.357 80.6845C161.162 80.0012 159.701 80.9778 159.875 82.3424L160.014 83.4207L162.722 92.5396L164.139 102.203" fill="#CCCCCC"/>
<path d="M91.6691 103.16L75.8965 103.377L69.5727 32.9001C69.4193 31.1894 69.9721 29.4598 71.0895 28.155L86.5994 10.0439C88.7704 7.50852 92.462 7.05155 95.1865 8.98094L114.612 22.7378C116.197 23.8601 117.179 25.6148 117.306 27.5519L120.798 80.6523L129.584 91.0471L129.603 91.0691L131.851 102.606L91.6691 103.16Z" fill="#E6E6E6"/>
<path d="M88.3655 26.431L88.1115 23.1599C88.0444 22.2965 88.6927 21.5395 89.5567 21.4725L94.1547 21.1158C95.0185 21.0488 95.7758 21.6967 95.8428 22.5602L96.0968 25.8313C96.1638 26.6947 95.5157 27.4517 94.6518 27.5187L90.0538 27.8754C89.1898 27.9424 88.4325 27.2945 88.3655 26.431Z" fill="#8A252C"/>
<path d="M80.6175 52.5759L79.6778 40.4731C79.6108 39.6097 80.2591 38.8527 81.123 38.7857L87.93 38.2577C88.7937 38.1907 89.5511 38.8386 89.6181 39.7021L90.5578 51.8048C90.6249 52.6682 89.9766 53.4252 89.1129 53.4922L82.3059 54.0203C81.4419 54.0873 80.6846 53.4393 80.6175 52.5759Z" fill="#3F3D56"/>
<path d="M95.9681 65.4821C95.6523 65.7745 95.4975 66.1878 95.5436 66.6156L96.7959 78.2868C96.8717 78.9917 97.4861 79.5206 98.1947 79.4908C98.5674 79.4769 98.9026 79.3144 99.1477 79.0381C99.3929 78.7619 99.5123 78.4068 99.4837 78.0386L98.5825 66.4324C98.5353 65.8239 98.0831 65.3215 97.4827 65.2104L97.1312 65.1452C97.0123 65.1232 96.8934 65.117 96.7767 65.1261C96.4781 65.1492 96.1953 65.2718 95.9681 65.4821Z" fill="#3F3D56"/>
<path d="M77.2974 80.893C76.9658 80.6191 76.7648 80.2321 76.7315 79.8035L75.8303 68.1973C75.7754 67.489 76.2053 66.8299 76.8758 66.5941L77.213 66.4756C77.6854 66.3101 78.1956 66.3746 78.6114 66.6543C79.0275 66.9341 79.2797 67.3816 79.3037 67.8819L79.8677 79.6064C79.9074 80.4309 79.2959 81.1496 78.4752 81.2426C78.4563 81.2447 78.4371 81.2464 78.4181 81.2479C78.0106 81.2795 77.6146 81.1545 77.2974 80.893Z" fill="#3F3D56"/>
<path d="M121.009 84.6634L126.527 92.904L127.836 102.551L131.717 102.497L129.5 91.1185L120.69 80.6959C120.1 81.9839 120.221 83.486 121.009 84.6634Z" fill="#CCCCCC"/>
<path d="M127.466 99.7898L111.744 101.226L111.764 101.446L127.486 100.01L127.466 99.7898Z" fill="#3F3D56"/>
<path d="M126.36 97.9152L111.446 99.1893L111.465 99.41L126.379 98.1359L126.36 97.9152Z" fill="#3F3D56"/>
<path d="M125.431 95.9841L111.178 97.37L111.2 97.5904L125.452 96.2045L125.431 95.9841Z" fill="#3F3D56"/>
<path d="M124.834 94.0382L111.161 95.5565L111.186 95.7767L124.858 94.2584L124.834 94.0382Z" fill="#3F3D56"/>
<path d="M124.034 92.3263L110.9 93.8108L110.925 94.0309L124.059 92.5465L124.034 92.3263Z" fill="#3F3D56"/>
<path d="M123.034 90.8428L110.206 91.8378L110.223 92.0586L123.051 91.0636L123.034 90.8428Z" fill="#3F3D56"/>
<path d="M122.249 89.345L109.794 90.458L109.814 90.6786L122.269 89.5655L122.249 89.345Z" fill="#3F3D56"/>
<path d="M121.464 87.8523L109.416 89.1902L109.44 89.4104L121.489 88.0725L121.464 87.8523Z" fill="#3F3D56"/>
<path d="M120.905 86.349L108.993 87.4839L109.014 87.7043L120.926 86.5695L120.905 86.349Z" fill="#3F3D56"/>
<path d="M119.901 84.8884L108.507 86.1312L108.531 86.3514L119.925 85.1087L119.901 84.8884Z" fill="#3F3D56"/>
<path d="M119.357 83.5758L108.045 84.5645L108.064 84.7851L119.377 83.7964L119.357 83.5758Z" fill="#3F3D56"/>
<path d="M106.856 79.9716L105.694 64.9986C105.627 64.1351 106.275 63.3781 107.139 63.3111L114.387 62.7488C115.251 62.6818 116.009 63.3297 116.076 64.1933L117.238 79.1663C117.305 80.0296 116.657 80.7866 115.793 80.8536L108.544 81.4159C107.681 81.4829 106.923 80.835 106.856 79.9716Z" fill="#8A252C"/>
<path d="M91.6691 103.16L78.7739 103.338L78.6701 103.34L77.8994 93.4134C77.8019 92.1581 78.7444 91.0575 80.0003 90.9601L92.6749 89.9769C93.9308 89.8795 95.0317 90.8216 95.1292 92.0769L95.9638 102.827L95.8534 102.835L91.6691 103.16Z" fill="#CCCCCC"/>
<path d="M105.631 52.7457L104.743 41.3053C104.676 40.4419 105.324 39.6849 106.188 39.6179L108.577 39.4326C109.441 39.3656 110.198 40.0135 110.265 40.877L111.153 52.3173C111.221 53.1808 110.572 53.9378 109.709 54.0048L107.319 54.1901C106.455 54.2571 105.698 53.6092 105.631 52.7457Z" fill="#3F3D56"/>
<path d="M111.954 102.697L110.537 93.0337L107.829 83.9147L107.08 81.4185C105.885 80.7352 104.423 81.7117 104.598 83.0764L104.736 84.1546L107.445 93.2736L108.862 102.937" fill="#CCCCCC"/>
<path d="M36.3919 103.894L20.6193 104.111L14.2956 33.634C14.1421 31.9234 14.6949 30.1938 15.8124 28.8889L31.3222 10.7779C33.4932 8.24259 37.185 7.78561 39.9091 9.71492L59.3349 23.4718C60.9197 24.594 61.9016 26.3487 62.029 28.2859L65.5213 81.3863L74.3073 91.7811L74.3257 91.8031L76.5735 103.34L36.3919 103.894Z" fill="#E6E6E6"/>
<path d="M33.0883 27.165L32.8343 23.8939C32.7673 23.0304 33.4155 22.2734 34.2795 22.2064L38.8775 21.8497C39.7412 21.7827 40.4986 22.4307 40.5656 23.2941L40.8196 26.5653C40.8866 27.4287 40.2384 28.1857 39.3746 28.2527L34.7766 28.6094C33.9127 28.6764 33.1553 28.0284 33.0883 27.165Z" fill="#8A252C"/>
<path d="M25.3403 53.3099L24.4006 41.2071C24.3336 40.3437 24.9819 39.5867 25.8458 39.5197L32.6528 38.9917C33.5165 38.9247 34.2739 39.5726 34.3409 40.436L35.2806 52.5388C35.3477 53.4022 34.6994 54.1592 33.8357 54.2262L27.0287 54.7542C26.1647 54.8213 25.4074 54.1733 25.3403 53.3099Z" fill="#3F3D56"/>
<path d="M21.6355 67.4326L21.9726 67.3141C22.8947 66.9901 23.8689 67.6453 23.9159 68.6213L24.4799 80.3458C24.5169 81.1145 23.9505 81.7798 23.1855 81.8665C22.3639 81.9596 21.6288 81.3529 21.5648 80.5289L20.6637 68.9228C20.6125 68.2634 21.0112 67.6519 21.6355 67.4326Z" fill="#3F3D56"/>
<path d="M28.5191 79.94L27.5767 67.8021C27.5102 66.9453 28.1281 66.2056 28.9837 66.118L35.1588 65.4873C36.0198 65.4067 36.7894 66.0257 36.8811 66.883L38.1916 79.1439C38.2371 79.5697 38.1114 79.9855 37.8374 80.3148C37.5637 80.644 37.1777 80.8436 36.7506 80.8767L30.2075 81.3843C29.3435 81.4513 28.5862 80.8033 28.5191 79.94Z" fill="#3F3D56"/>
<path d="M65.7318 85.3974L71.2501 93.6379L72.5591 103.285L76.4394 103.231L74.2226 91.8525L65.4132 81.4298C64.8228 82.7179 64.9434 84.22 65.7318 85.3974Z" fill="#CCCCCC"/>
<path d="M72.1887 100.524L56.4669 101.96L56.4871 102.18L72.2089 100.744L72.1887 100.524Z" fill="#3F3D56"/>
<path d="M71.0827 98.6492L56.1692 99.9233L56.1881 100.144L71.1016 98.8699L71.0827 98.6492Z" fill="#3F3D56"/>
<path d="M70.1536 96.7181L55.9011 98.104L55.9226 98.3244L70.1751 96.9385L70.1536 96.7181Z" fill="#3F3D56"/>
<path d="M69.5567 94.7722L55.8842 96.2904L55.9087 96.5107L69.5812 94.9924L69.5567 94.7722Z" fill="#3F3D56"/>
<path d="M68.757 93.0603L55.6227 94.5447L55.6476 94.7649L68.7819 93.2805L68.757 93.0603Z" fill="#3F3D56"/>
<path d="M67.7566 91.5767L54.9289 92.5718L54.9461 92.7926L67.7737 91.7975L67.7566 91.5767Z" fill="#3F3D56"/>
<path d="M66.9723 90.0789L54.5172 91.192L54.5369 91.4125L66.992 90.2995L66.9723 90.0789Z" fill="#3F3D56"/>
<path d="M66.1873 88.5863L54.1386 89.9242L54.1631 90.1444L66.2118 88.8065L66.1873 88.5863Z" fill="#3F3D56"/>
<path d="M65.628 87.0829L53.7158 88.2178L53.7368 88.4383L65.6491 87.3034L65.628 87.0829Z" fill="#3F3D56"/>
<path d="M64.624 85.6224L53.2301 86.8651L53.2541 87.0854L64.6481 85.8427L64.624 85.6224Z" fill="#3F3D56"/>
<path d="M64.0801 84.3098L52.7678 85.2984L52.7871 85.519L64.0994 84.5304L64.0801 84.3098Z" fill="#3F3D56"/>
<path d="M51.579 80.7056L50.4164 65.7326C50.3493 64.869 50.9976 64.112 51.8615 64.045L59.1103 63.4827C59.974 63.4157 60.7314 64.0637 60.7984 64.9272L61.961 79.9002C62.0281 80.7636 61.3798 81.5206 60.5161 81.5876L53.2673 82.1499C52.4033 82.2169 51.646 81.5689 51.579 80.7056Z" fill="#8A252C"/>
<path d="M36.3919 103.894L23.4967 104.072L23.3929 104.074L22.6222 94.1474C22.5247 92.8921 23.4673 91.7915 24.7232 91.694L37.3977 90.7109C38.6536 90.6134 39.7545 91.5556 39.852 92.8109L40.6867 103.561L40.5762 103.569L36.3919 103.894Z" fill="#CCCCCC"/>
<path d="M50.3539 53.4797L49.4656 42.0393C49.3986 41.1759 50.0469 40.4189 50.9108 40.3519L53.2999 40.1666C54.1636 40.0995 54.921 40.7475 54.988 41.6109L55.8763 53.0513C55.9433 53.9147 55.2951 54.6717 54.4313 54.7387L52.0423 54.9241C51.1783 54.9911 50.421 54.3431 50.3539 53.4797Z" fill="#3F3D56"/>
<path d="M56.6769 103.431L55.2599 93.7677L52.5518 84.6487L51.8024 82.1524C50.6077 81.4692 49.1462 82.4457 49.3211 83.8103L49.4593 84.8886L52.1674 94.0076L53.5843 103.671" fill="#CCCCCC"/>
<path d="M201.995 101.576L7.62939e-06 104.193L0.00575206 104.636L202.001 102.019L201.995 101.576Z" fill="#CCCCCC"/>
<path d="M67.0208 194.151C66.5687 193.389 64.6128 194.205 64.2532 193.513C63.8949 192.824 65.7121 191.774 66.7504 189.376C66.9376 188.944 68.1174 186.218 67.244 185.377C65.5884 183.783 58.0123 190.361 55.361 188.209C54.7792 187.736 54.3727 186.793 52.6117 185.262C51.9111 184.652 51.4875 184.377 51.0775 184.48C50.4958 184.625 50.4497 185.403 49.8259 186.933C48.8904 189.228 48.3371 189.089 47.792 190.92C47.3874 192.279 47.4798 193.069 47.0037 193.223C46.3299 193.441 45.7097 192 44.8558 192.129C43.9845 192.261 43.4577 193.939 43.2913 195.196C42.979 197.554 43.8455 199.11 44.3257 200.746C44.8476 202.525 45.1574 205.229 43.9521 209.057L32.0229 242.652C34.6565 235.759 42.2821 216.862 45.4863 209.839C46.4113 207.812 47.4327 205.756 49.5298 204.944C51.5488 204.163 54.3217 204.63 57.8568 203.778C58.2697 203.679 59.4154 203.388 59.5596 202.714C59.6788 202.157 59.0049 201.846 59.1085 201.325C59.2473 200.625 60.5726 200.617 62.2011 199.81C63.3495 199.24 64.0649 198.564 64.6801 197.982C64.8656 197.806 67.6226 195.165 67.0208 194.151Z" fill="#F2F2F2"/>
<path d="M20.0875 211.837C19.5829 211.839 19.4192 213.034 18.9759 213.01C18.5341 212.987 18.5429 211.793 17.6648 210.592C17.5065 210.375 16.5085 209.01 15.8435 209.196C14.5831 209.548 15.6275 215.163 13.8054 215.842C13.4055 215.991 12.825 215.919 11.565 216.341C11.0637 216.509 10.8065 216.637 10.7384 216.868C10.6419 217.195 11.0107 217.442 11.582 218.19C12.4389 219.311 12.2112 219.542 12.953 220.338C13.5036 220.928 13.9183 221.111 13.8565 221.389C13.769 221.782 12.8822 221.671 12.6992 222.127C12.5125 222.592 13.1847 223.335 13.7538 223.779C14.8217 224.613 15.8358 224.637 16.7779 224.873C17.8017 225.13 19.219 225.759 20.7511 227.455L33.8055 243C31.1804 239.719 24.1014 230.526 21.5777 226.928C20.8492 225.889 20.1342 224.795 20.3408 223.532C20.5397 222.316 21.5688 221.09 22.1708 219.11C22.2412 218.879 22.4286 218.233 22.1395 217.968C21.9005 217.749 21.5534 217.989 21.3272 217.788C21.0238 217.518 21.4019 216.866 21.4755 215.834C21.5273 215.106 21.4014 214.56 21.2931 214.09C21.2605 213.949 20.7592 211.834 20.0875 211.837Z" fill="#F2F2F2"/>
<path d="M30.1545 214.096L29.8505 211.383L29.9894 211.177C30.6322 210.226 30.9598 209.298 30.9638 208.416C30.9644 208.276 30.9579 208.136 30.9513 207.993C30.9251 207.427 30.8923 206.724 31.2593 205.904C31.465 205.447 32.0429 204.388 32.9118 204.519C33.1457 204.552 33.3226 204.659 33.4569 204.785C33.4766 204.754 33.4969 204.722 33.5185 204.688C33.7891 204.276 34.0034 204.099 34.2098 203.929C34.3683 203.798 34.5321 203.663 34.789 203.343C34.9017 203.203 34.9895 203.08 35.0635 202.976C35.2883 202.663 35.5818 202.29 36.0995 202.296C36.6525 202.323 36.9421 202.78 37.1341 203.082C37.4768 203.622 37.632 204.011 37.7349 204.269C37.7723 204.363 37.8148 204.469 37.8365 204.502C38.0147 204.764 39.4634 204.519 40.0092 204.43C41.2351 204.226 42.296 204.049 42.733 204.822C43.0462 205.375 42.8136 206.105 42.0208 207.052C41.7737 207.347 41.511 207.571 41.2777 207.747C41.471 207.862 41.644 208.039 41.7141 208.316C41.8792 208.974 41.3138 209.633 40.0341 210.277C39.7163 210.438 39.2885 210.653 38.6889 210.757C38.4065 210.805 38.1523 210.817 37.9348 210.824C37.9302 210.949 37.9007 211.086 37.824 211.226C37.5993 211.638 37.1315 211.835 36.4264 211.788C35.6506 211.747 35.0118 211.599 34.4483 211.469C33.9562 211.357 33.5323 211.261 33.1994 211.283C32.5822 211.333 32.1065 211.827 31.5482 212.467L30.1545 214.096Z" fill="#F2F2F2"/>
<path d="M31.5649 197.944L29.0168 198.926L28.7825 198.844C27.6992 198.464 26.7174 198.383 25.8633 198.602C25.7275 198.637 25.5935 198.679 25.457 198.722C24.9161 198.891 24.2437 199.101 23.3571 198.954C22.8625 198.871 21.6917 198.581 21.5981 197.707C21.5704 197.473 21.6295 197.275 21.7171 197.113C21.6817 197.102 21.6461 197.09 21.6077 197.078C21.1398 196.921 20.9143 196.759 20.6971 196.602C20.5302 196.482 20.358 196.358 19.9836 196.191C19.8194 196.117 19.678 196.064 19.559 196.018C19.1991 195.88 18.7634 195.691 18.6384 195.189C18.5235 194.648 18.8924 194.252 19.1365 193.99C19.5719 193.521 19.909 193.273 20.1326 193.108C20.2144 193.048 20.3062 192.98 20.3325 192.95C20.5408 192.712 19.9363 191.373 19.7116 190.868C19.2029 189.734 18.7627 188.754 19.3998 188.135C19.8552 187.692 20.6216 187.732 21.7391 188.258C22.087 188.422 22.3704 188.619 22.5995 188.8C22.662 188.584 22.7892 188.372 23.0402 188.234C23.6346 187.907 24.4157 188.287 25.3639 189.361C25.6004 189.627 25.9169 189.986 26.1691 190.54C26.2876 190.8 26.3635 191.043 26.425 191.252C26.5479 191.224 26.6872 191.218 26.8423 191.257C27.2986 191.37 27.6074 191.772 27.7406 192.466C27.898 193.226 27.9169 193.881 27.9343 194.459C27.9501 194.963 27.9651 195.397 28.0711 195.714C28.2758 196.298 28.8743 196.632 29.6358 197.01L31.5649 197.944Z" fill="#F2F2F2"/>
<path d="M30.1545 189.953L29.8505 187.24L29.9894 187.034C30.6322 186.083 30.9598 185.155 30.9638 184.273C30.9644 184.133 30.9579 183.993 30.9513 183.85C30.9251 183.284 30.8923 182.581 31.2593 181.761C31.465 181.304 32.0429 180.245 32.9118 180.376C33.1457 180.409 33.3226 180.516 33.4569 180.642C33.4766 180.611 33.4969 180.579 33.5185 180.545C33.7891 180.133 34.0034 179.956 34.2098 179.786C34.3683 179.655 34.5321 179.52 34.789 179.2C34.9017 179.06 34.9895 178.937 35.0635 178.833C35.2883 178.52 35.5818 178.147 36.0995 178.153C36.6525 178.18 36.9421 178.637 37.1341 178.939C37.4768 179.479 37.632 179.868 37.7349 180.126C37.7723 180.22 37.8148 180.326 37.8365 180.359C38.0147 180.621 39.4634 180.376 40.0092 180.287C41.2351 180.083 42.296 179.906 42.733 180.679C43.0462 181.232 42.8136 181.962 42.0208 182.909C41.7737 183.204 41.511 183.428 41.2777 183.604C41.471 183.719 41.644 183.896 41.7141 184.173C41.8792 184.831 41.3138 185.49 40.0341 186.134C39.7163 186.295 39.2885 186.51 38.6889 186.614C38.4065 186.662 38.1523 186.674 37.9348 186.681C37.9302 186.806 37.9007 186.942 37.824 187.083C37.5993 187.495 37.1315 187.692 36.4264 187.645C35.6506 187.604 35.0118 187.456 34.4483 187.326C33.9562 187.214 33.5323 187.118 33.1994 187.14C32.5822 187.19 32.1065 187.684 31.5482 188.324L30.1545 189.953Z" fill="#F2F2F2"/>
<path d="M32.9314 242.608L32.3627 242.252L31.6996 242.328C31.6891 242.266 31.6531 242.125 31.5987 241.903C31.3019 240.691 30.397 236.999 29.6422 231.186C29.1153 227.128 28.8172 222.957 28.7556 218.785C28.694 214.606 28.8919 211.443 29.0505 208.901C29.1704 206.983 29.3159 205.157 29.4587 203.378C29.8387 198.626 30.1971 194.137 29.9305 189.168C29.8715 188.058 29.7476 185.749 28.3979 183.292C27.6149 181.867 26.5364 180.602 25.1918 179.533L26.0279 178.482C27.512 179.664 28.7052 181.065 29.5747 182.648C31.0712 185.372 31.2062 187.888 31.2711 189.097C31.5423 194.154 31.18 198.687 30.796 203.484C30.6545 205.257 30.509 207.075 30.3898 208.985C30.2325 211.503 30.0366 214.639 30.0975 218.764C30.1578 222.886 30.4527 227.007 30.9723 231.013C31.7179 236.753 32.6097 240.389 32.9026 241.584C33.0585 242.222 33.0913 242.355 32.9314 242.608Z" fill="#F2F2F2"/>
<path d="M22.7308 181.664C22.6758 181.664 22.6201 181.663 22.5637 181.659C21.421 181.597 20.3628 180.913 19.418 179.627C18.975 179.022 18.7483 178.332 18.2962 176.955C18.2261 176.743 17.8854 175.666 17.6783 174.185C17.5427 173.217 17.5597 172.812 17.7517 172.454C17.9646 172.056 18.3093 171.778 18.6972 171.591C18.6802 171.463 18.6939 171.331 18.7496 171.196C18.9783 170.636 19.5863 170.71 19.9153 170.745C20.0817 170.766 20.2894 170.793 20.5135 170.782C20.866 170.765 21.0554 170.66 21.3424 170.503C21.6169 170.352 21.9583 170.165 22.4648 170.061C23.4634 169.853 24.3001 170.136 24.5759 170.229C26.0273 170.712 26.7428 171.84 27.571 173.146C27.7361 173.408 28.3029 174.361 28.677 175.669C28.9469 176.612 28.909 177.031 28.8277 177.343C28.6626 177.983 28.2727 178.35 27.2827 179.159C26.2487 180.007 25.7298 180.431 25.2842 180.689C24.247 181.288 23.5957 181.664 22.7308 181.664Z" fill="#F2F2F2"/>
<path d="M322.588 241.998C322.588 242.247 322.386 242.448 322.138 242.448H10.3743V241.549H322.138C322.386 241.549 322.588 241.75 322.588 241.998Z" fill="#E6E6E6"/>
<path d="M232.586 99.8739C232.586 99.8739 215.804 101.891 218.635 88.629C221.465 75.3666 237.516 50.8703 237.516 50.8703L246.623 55.9757L236.167 80.6812L240.668 84.2308L232.586 99.8739Z" fill="#A0616A"/>
<path d="M287.58 83.7281L285.215 103.168L225.959 102.878L237.86 82.2043L287.58 83.7281Z" fill="#8A252C"/>
<path d="M252.366 51.9033C255.992 46.8411 256.283 40.8418 253.016 38.5033C249.748 36.1649 244.16 38.3728 240.533 43.4349C236.907 48.4971 236.616 54.4964 239.884 56.8349C243.151 59.1733 248.74 56.9654 252.366 51.9033Z" fill="#A0616A"/>
<path d="M285.521 157.843H281.882V242.21H285.521V157.843Z" fill="#3F3D56"/>
<path d="M268.057 157.843H264.419V242.21H268.057V157.843Z" fill="#3F3D56"/>
<path d="M170.189 104.751H166.551V242.21H170.189V104.751Z" fill="#E6E6E6"/>
<path d="M228.765 157.843H225.126V242.21H228.765V157.843Z" fill="#3F3D56"/>
<path d="M214.842 157.843H211.204V242.21H214.842V157.843Z" fill="#3F3D56"/>
<path d="M278.608 156.025H208.35L194.873 175.133L264.783 179.299L278.608 156.025Z" fill="#3F3D56"/>
<path d="M149.959 90.6497L150.278 76.7925L107.875 80.0525L107.658 89.4424L149.959 90.6497Z" fill="#A0616A"/>
<path d="M121.261 78.3969L119.233 83.2738L116.32 83.3668C116.32 83.3668 119.731 84.4106 120.678 90.6045L117.879 91.443C117.879 91.443 115.192 93.9493 110.168 93.7062L96.6974 92.5799L96.6456 87.8862L105.956 86.8108C105.956 86.8108 108.03 85.4467 97.7608 79.8383C97.7608 79.8383 94.3589 77.759 97.4184 67.4912C97.839 66.08 99.1092 65.0664 100.582 65.0345C101.395 65.0169 102.157 65.3088 102.461 66.3179C103.235 68.8866 102.451 71.4474 104.578 73.0508C106.705 74.6543 121.261 78.3969 121.261 78.3969Z" fill="#2F2E41"/>
<path d="M273.35 143.627C273.35 143.627 258.719 168.499 225.613 164.017C217.735 162.95 210.804 158.268 206.855 151.371C199.223 138.041 187.633 114.699 191.39 101.482L135.398 90.8009L130.986 77.2091L191.584 69.3411C196.944 68.6452 202.195 71.2505 204.881 75.9388L234.399 127.465L243.199 128.426L273.35 143.627Z" fill="#2F2E41"/>
<path d="M151.065 96.3224L150.267 82.4845L108.264 89.1437L108.804 98.5206L151.065 96.3224Z" fill="#A0616A"/>
<path d="M121.473 86.417L119.844 91.4412L116.949 91.7681C116.949 91.7681 120.432 92.5343 121.875 98.632L119.153 99.6928C119.153 99.6928 116.676 102.407 111.648 102.569L98.1308 102.529L97.7014 97.8549L106.895 96.0344C106.895 96.0344 108.853 94.5078 98.1652 89.7435C98.1652 89.7435 94.607 87.9444 96.8301 77.4639C97.1357 76.0234 98.3202 74.911 99.7858 74.7608C100.595 74.6779 101.377 74.9076 101.761 75.889C102.74 78.3871 102.165 81.0025 104.414 82.4298C106.663 83.857 121.473 86.417 121.473 86.417Z" fill="#2F2E41"/>
<path d="M278.32 139.206C278.32 139.206 265.738 165.174 232.379 163.368C224.44 162.938 217.155 158.829 212.663 152.272C203.983 139.598 190.552 117.264 193.233 103.788L136.563 97.644L131.071 84.451L190.839 71.7356C196.126 70.6109 201.569 72.7856 204.624 77.2427L238.194 126.229L247.043 126.478L278.32 139.206Z" fill="#2F2E41"/>
<path d="M239.969 29.5493L237.058 31.7312L252.338 52.8229L255.249 52.0956L239.969 29.5493Z" fill="#3F3D56"/>
<path d="M279.7 76.3859L296.435 75.6586L303.712 108.387C303.712 108.387 288.431 165.844 270.24 163.662C270.24 163.662 258.962 155.298 258.962 152.389C258.962 149.479 243.681 142.206 243.681 142.206L240.043 129.842L250.958 113.115C250.958 113.115 255.324 100.023 269.876 92.7501L279.7 76.3859Z" fill="#8A252C"/>
<path d="M184.015 101.841H35.2116V105.478H107.976V242.21H111.614V105.478H184.015V101.841Z" fill="#E6E6E6"/>
<path d="M288.431 73.4767C299.282 73.4767 308.078 64.6849 308.078 53.8396C308.078 42.9944 299.282 34.2026 288.431 34.2026C277.581 34.2026 268.785 42.9944 268.785 53.8396C268.785 64.6849 277.581 73.4767 288.431 73.4767Z" fill="#A0616A"/>
<path d="M219.93 78.9315L206.208 84.3862L233.13 120.024L242.59 112.751L219.93 78.9315Z" fill="#E6E6E6"/>
<path d="M273.515 147.298C273.515 147.298 268.421 163.407 257.506 155.352C246.592 147.298 230.902 122.569 230.902 122.569L239.315 116.387L257.506 136.11L262.6 133.479L273.515 147.298Z" fill="#A0616A"/>
<path d="M281.519 90.5683L298.254 100.75L273.515 154.571L257.506 132.752L281.519 90.5683Z" fill="#8A252C"/>
<path d="M237.314 122.877C240.795 120.869 241.091 114.87 237.977 109.478C234.862 104.086 229.516 101.343 226.036 103.352C222.556 105.36 222.259 111.359 225.374 116.751C228.488 122.143 233.834 124.886 237.314 122.877Z" fill="#A0616A"/>
<path d="M290.58 113.295C295.622 96.7728 301.033 91.5442 306.722 94.8178C311.052 97.3095 312.355 102.981 309.817 107.283C303.349 118.249 290.02 143.373 292.797 160.025C292.797 160.025 297.163 183.299 262.236 183.299C227.309 183.299 193.838 175.299 193.838 175.299L212.029 172.389L253.397 175.343C262.849 176.018 270.815 167.934 269.552 158.547C269.511 158.238 269.461 157.924 269.404 157.608C267.33 146.207 290.58 113.295 290.58 113.295Z" fill="#3F3D56"/>
<path d="M281.068 45.6992C279.463 50.1909 282.989 54.8548 287.751 54.5376L287.864 54.53C291.065 58.5289 291.153 64.1855 288.079 68.2823C287.826 73.5626 288.654 78.8389 290.511 83.7886L295.728 97.6955L303.761 93.9489L307.573 104.118L330 92.5704L316.408 62.0022L312.26 45.4182C309.309 33.6194 297.268 26.5175 285.508 29.6397L276.485 32.0351C269.357 33.9276 265.255 41.3869 267.476 48.4164L281.068 45.6992Z" fill="#2F2E41"/>
</g>
<defs>
<clipPath id="clip0_1_141">
<rect width="330" height="243" fill="white"/>
</clipPath>
</defs>
</svg>
