<svg width="32" height="33" viewBox="0 0 32 33" fill="none" xmlns="http://www.w3.org/2000/svg">
<path d="M31.7535 15.015H16.6821V19.5195H27.3816C26.8392 25.806 21.6292 28.4955 16.6985 28.4955C10.4037 28.4955 4.88136 23.5125 4.88136 16.5C4.88136 9.735 10.1407 4.5045 16.7149 4.5045C21.7935 4.5045 24.7684 7.755 24.7684 7.755L27.8911 4.488C27.8911 4.488 23.8808 0 16.5506 0C7.2152 0 0 7.92 0 16.5C0 24.8325 6.78788 33 16.7971 33C25.5901 33 32 26.9445 32 18.0015C32 16.104 31.7535 15.015 31.7535 15.015Z" fill="black"/>
</svg>
