<svg width="55" height="54" viewBox="0 0 55 54" fill="none" xmlns="http://www.w3.org/2000/svg">
<path d="M18.51 26.22V30.71C18.51 35.2 20.31 37 24.8 37H30.19C34.68 37 36.48 35.2 36.48 30.71V26.22" stroke="#9DB2CE" stroke-width="1.5" stroke-linecap="round" stroke-linejoin="round"/>
<path d="M27.5 27C29.33 27 30.68 25.51 30.5 23.68L29.84 17H25.17L24.5 23.68C24.32 25.51 25.67 27 27.5 27Z" stroke="#9DB2CE" stroke-width="1.5" stroke-linecap="round" stroke-linejoin="round"/>
<path d="M33.81 27C35.83 27 37.31 25.36 37.11 23.35L36.83 20.6C36.47 18 35.47 17 32.85 17H29.8L30.5 24.01C30.67 25.66 32.16 27 33.81 27Z" stroke="#9DB2CE" stroke-width="1.5" stroke-linecap="round" stroke-linejoin="round"/>
<path d="M21.14 27C22.79 27 24.28 25.66 24.44 24.01L24.66 21.8L25.14 17H22.09C19.47 17 18.47 18 18.11 20.6L17.84 23.35C17.64 25.36 19.12 27 21.14 27Z" stroke="#9DB2CE" stroke-width="1.5" stroke-linecap="round" stroke-linejoin="round"/>
<path d="M27.5 32C25.83 32 25 32.83 25 34.5V37H30V34.5C30 32.83 29.17 32 27.5 32Z" stroke="#9DB2CE" stroke-width="1.5" stroke-linecap="round" stroke-linejoin="round"/>
<rect x="1.25" y="0.75" width="52.5" height="52.5" rx="26.25" stroke="#9DB2CE" stroke-width="1.5"/>
</svg>
